<svg xmlns="http://www.w3.org/2000/svg" width="25" height="26" viewBox="0 0 25 26" fill="none"><path d="M6.945 0.376317C6.995 0.289975 7.115 0.17316 7.205 0.112212C7.315 0.0411075 7.46 0.000476149 7.615 0.000476149C7.78 -0.00460278 7.9 0.0309497 8.02 0.107134C8.115 0.17316 8.235 0.289975 8.29 0.376317C8.35 0.457579 8.44 0.711525 8.495 0.934998C8.55 1.15847 8.655 1.514 8.73 1.72223C8.8 1.93047 8.98 2.34186 9.125 2.63644C9.27 2.93102 9.5 3.33225 9.63 3.53541C9.765 3.73349 10.045 4.09917 10.25 4.34296C10.455 4.58674 10.83 4.95751 11.075 5.16574C11.32 5.37906 11.67 5.64824 11.85 5.76506C12.03 5.88187 12.345 6.06979 12.55 6.18153C12.755 6.29326 13.15 6.47103 13.425 6.5726C13.7 6.67418 14.115 6.81131 14.35 6.87226C14.585 6.93829 14.85 7.03987 14.935 7.11097C15.025 7.177 15.135 7.31413 15.18 7.41063C15.235 7.53252 15.25 7.66457 15.235 7.84234C15.215 8.0201 15.16 8.15215 15.06 8.27404C14.95 8.41117 14.835 8.4772 14.545 8.56862C14.34 8.63465 13.95 8.75654 13.675 8.84796C13.4 8.9343 12.95 9.12222 12.675 9.26443C12.4 9.40664 11.965 9.67075 11.705 9.84851C11.445 10.0314 11.01 10.397 10.735 10.6611C10.46 10.9252 10.085 11.3519 9.9 11.6007C9.72 11.8496 9.485 12.195 9.39 12.3626C9.29 12.5302 9.145 12.8044 9.06 12.972C8.98 13.1397 8.835 13.5053 8.74 13.7847C8.64 14.064 8.525 14.4653 8.47 14.6735C8.415 14.9071 8.33 15.1103 8.25 15.2017C8.18 15.283 8.06 15.3795 7.975 15.4201C7.895 15.4658 7.735 15.4963 7.625 15.4963C7.515 15.4963 7.36 15.4658 7.275 15.4201C7.195 15.3795 7.07 15.283 7 15.2017C6.915 15.1052 6.83 14.8919 6.755 14.5973C6.695 14.3484 6.565 13.9218 6.465 13.6577C6.365 13.3936 6.22 13.0381 6.14 12.8705C6.055 12.7029 5.865 12.3727 5.71 12.134C5.56 11.8953 5.305 11.5398 5.145 11.3468C4.99 11.1538 4.715 10.8541 4.54 10.6815C4.37 10.5138 4.115 10.2802 3.975 10.1685C3.84 10.0517 3.49 9.80788 3.2 9.62504C2.91 9.4422 2.44 9.18825 2.15 9.06636C1.86 8.93938 1.365 8.7667 1.05 8.68036C0.735 8.59402 0.42 8.48228 0.35 8.43149C0.28 8.3807 0.175 8.26389 0.11 8.16739C0.035 8.05565 0 7.91852 0 7.77631C0 7.65949 0.045 7.47665 0.095 7.37C0.15 7.26842 0.27 7.13129 0.36 7.07034C0.45 7.00939 0.75 6.90273 1.025 6.82655C1.3 6.75545 1.75 6.60308 2.025 6.49642C2.3 6.38468 2.73 6.17645 2.975 6.02408C3.225 5.87679 3.55 5.66348 3.7 5.55174C3.85 5.44 4.135 5.20129 4.325 5.02861C4.52 4.85593 4.815 4.55119 4.99 4.34804C5.165 4.14488 5.44 3.7792 5.61 3.52525C5.775 3.2713 6.005 2.87515 6.125 2.63644C6.24 2.39773 6.395 2.05744 6.465 1.8746C6.535 1.69176 6.655 1.31592 6.725 1.03658C6.8 0.757236 6.895 0.462658 6.945 0.376317Z" fill="white"/><path d="M8.995 17.345C9.105 17.2485 9.245 17.1571 9.31 17.1469C9.375 17.1368 9.475 17.1215 9.54 17.1165C9.6 17.1165 9.725 17.1418 9.815 17.1774C9.9 17.213 10.035 17.3145 10.115 17.3958C10.2 17.4872 10.31 17.7259 10.405 18.0256C10.49 18.2897 10.605 18.5995 10.66 18.7112C10.72 18.823 10.835 19.016 10.915 19.1429C11 19.2699 11.185 19.4934 11.325 19.6458C11.46 19.793 11.7 20.0013 11.85 20.1079C12 20.2095 12.24 20.3568 12.375 20.4228C12.515 20.4939 12.815 20.6108 13.05 20.6819C13.32 20.7682 13.53 20.8698 13.62 20.9561C13.7 21.0323 13.8 21.1745 13.835 21.2659C13.87 21.3523 13.9 21.4894 13.9 21.5707C13.9 21.6469 13.855 21.8043 13.8 21.9262C13.73 22.0735 13.635 22.1751 13.49 22.2614C13.37 22.3274 13.165 22.4087 13.025 22.4442C12.89 22.4798 12.595 22.5966 12.375 22.7033C12.155 22.8099 11.83 23.0182 11.655 23.1655C11.475 23.3127 11.22 23.5718 11.085 23.7394C10.955 23.907 10.76 24.2269 10.655 24.4504C10.55 24.6739 10.435 24.9735 10.4 25.1107C10.365 25.2529 10.285 25.456 10.225 25.5678C10.165 25.6795 10.03 25.8217 9.93 25.8878C9.81 25.9589 9.67 25.9995 9.515 25.9995C9.305 26.0046 9.245 25.9741 9.04 25.7963C8.82 25.6084 8.785 25.5525 8.65 25.1005C8.57 24.8263 8.41 24.4352 8.3 24.2371C8.19 24.0339 7.96 23.714 7.79 23.5311C7.615 23.3432 7.35 23.1045 7.2 23.0029C7.05 22.9013 6.815 22.7541 6.675 22.688C6.54 22.6169 6.235 22.5001 6 22.429C5.73 22.3427 5.52 22.2411 5.43 22.1547C5.35 22.0786 5.25 21.9313 5.21 21.8348C5.17 21.7281 5.15 21.5808 5.17 21.4539C5.19 21.3269 5.265 21.1694 5.375 21.0374C5.525 20.8495 5.605 20.8038 5.915 20.7174C6.11 20.6565 6.39 20.565 6.525 20.5041C6.665 20.4431 6.92 20.2959 7.1 20.179C7.28 20.0673 7.545 19.8489 7.695 19.6965C7.845 19.5442 8.06 19.275 8.17 19.0922C8.285 18.9093 8.43 18.6503 8.49 18.5081C8.55 18.3709 8.64 18.0865 8.7 17.8884C8.78 17.5837 8.835 17.4872 8.995 17.345Z" fill="white"/><path d="M19.035 8.61433C19.115 8.53815 19.265 8.44165 19.375 8.40102C19.485 8.36039 19.64 8.34007 19.725 8.36039C19.805 8.37562 19.93 8.41625 20 8.45181C20.07 8.48736 20.175 8.5737 20.235 8.63973C20.305 8.70575 20.41 8.97494 20.505 9.28983C20.585 9.58441 20.73 9.98564 20.825 10.1786C20.915 10.3767 21.075 10.6611 21.18 10.8135C21.28 10.9659 21.49 11.2401 21.645 11.4179C21.8 11.5957 22.105 11.8801 22.325 12.0477C22.545 12.2153 22.95 12.4642 23.225 12.5962C23.5 12.7283 23.915 12.8908 24.15 12.9517C24.41 13.0228 24.63 13.1193 24.72 13.2006C24.8 13.2717 24.895 13.3885 24.93 13.4698C24.97 13.546 25 13.6983 25 13.8101C25 13.9218 24.955 14.0996 24.905 14.2062C24.85 14.3078 24.73 14.4449 24.64 14.5008C24.55 14.5618 24.265 14.6684 24.01 14.7446C23.76 14.8157 23.385 14.9579 23.185 15.0595C22.99 15.1611 22.7 15.3287 22.55 15.4302C22.4 15.5318 22.105 15.7756 21.9 15.9737C21.695 16.1718 21.4 16.5171 21.25 16.7355C21.1 16.959 20.895 17.3196 20.795 17.5431C20.69 17.7666 20.56 18.1322 20.5 18.3557C20.44 18.5792 20.345 18.8382 20.295 18.9296C20.245 19.016 20.11 19.1379 20 19.1937C19.89 19.2496 19.715 19.2953 19.61 19.2953C19.51 19.2953 19.335 19.2445 19.23 19.1785C19.12 19.1175 18.99 18.9957 18.945 18.9144C18.895 18.8331 18.795 18.5639 18.725 18.3202C18.655 18.0713 18.535 17.731 18.46 17.5583C18.38 17.3806 18.22 17.0809 18.095 16.8828C17.97 16.6847 17.725 16.3699 17.545 16.1768C17.37 15.9839 17.08 15.7197 16.9 15.5826C16.72 15.4455 16.385 15.2322 16.15 15.1103C15.915 14.9833 15.51 14.8208 15.25 14.7446C14.99 14.6735 14.7 14.5618 14.605 14.5008C14.515 14.4449 14.395 14.323 14.345 14.2418C14.29 14.1504 14.25 13.9878 14.25 13.8355C14.25 13.6526 14.28 13.5358 14.36 13.4088C14.425 13.3123 14.53 13.1955 14.6 13.1447C14.67 13.0939 14.93 12.9924 15.175 12.9213C15.42 12.8502 15.795 12.7079 16 12.6114C16.205 12.5099 16.52 12.3321 16.7 12.2102C16.88 12.0934 17.18 11.8344 17.375 11.6465C17.57 11.4535 17.83 11.1487 17.96 10.9659C18.09 10.783 18.295 10.4174 18.42 10.1532C18.54 9.88914 18.7 9.46759 18.77 9.21364C18.86 8.89367 18.94 8.71591 19.035 8.61433Z" fill="white"/></svg>